<svg id="Layer_1" data-name="Layer 1" xmlns="http://www.w3.org/2000/svg" viewBox="0 0 496.24 136.51"><defs><style>.cls-1{fill:#fff;}.cls-2{fill:#d3652f;}</style></defs><path class="cls-1" d="M79.19,278.85V196.79H57.88v96.46h43.47v-14.4Z" transform="translate(-57.88 -156.75)"/><path class="cls-1" d="M148.51,196.79H124.2L106,293.25h20.13l3.33-20.35h14.18l3.2,20.35h19.65Zm-17.16,63.36,5.13-37.63,5.12,37.63Z" transform="translate(-57.88 -156.75)"/><path class="cls-1" d="M211,196.79v46.44l-19.76-46.44h-15v96.46h18.22v-50l19.78,50h14.4V196.79Z" transform="translate(-57.88 -156.75)"/><path class="cls-1" d="M275.45,196.79H243.07v96.46h21.31v-41H273c15.59,0,27.86-5.23,27.86-27.51C300.82,206.91,292.72,196.79,275.45,196.79Zm-3.92,40.62h-7.15V211.8h7c8.56,0,9.39,5.36,9.39,12.62C280.81,233.24,279.38,237.41,271.53,237.41Z" transform="translate(-57.88 -156.75)"/><path class="cls-1" d="M343.34,196.79H319.05l-18.21,96.46H321l3.33-20.35h14.18l3.22,20.35h19.65ZM326.2,260.15l5.12-37.63,5.11,37.63Z" transform="translate(-57.88 -156.75)"/><path class="cls-1" d="M417.9,246.56c9.53-4.52,11.78-12.37,11.78-24.28,0-20.25-12.61-25.49-32-25.49H371.1v96.46h21.31V250h6.08l10.59,43.22h22Zm-19.54-8.8h-5.95V211.08h6.9c8.1,0,10.61,4.89,10.61,13.1C409.92,232.76,407.3,237.76,398.36,237.76Z" transform="translate(-57.88 -156.75)"/><path class="cls-1" d="M479.42,206.41c-7.7,0-12.63-3.71-14.66-9.62h-29v15.83h14.51v80.63h21.44V212.62h14.42V205.2A17.83,17.83,0,0,1,479.42,206.41Z" transform="translate(-57.88 -156.75)"/><path class="cls-1" d="M542,206.46c-7.76,0-12.69-3.72-14.68-9.67h-1.45l-8.21,30.5-6.27-20.85c-.2,0-.41,0-.63,0-7.74,0-12.68-3.72-14.69-9.67H494a13.91,13.91,0,0,1-3.71,5.82l16.47,51.23v39.41h20.49V253.84l14.92-47.38Z" transform="translate(-57.88 -156.75)"/><path class="cls-2" d="M467,188.38v-1.57H476v1.57c0,4.4.7,6.14,3.2,6.14s2.93-1.9,2.93-5.86c0-4.35-.87-6.63-4.61-6.73h-1.69v-6.24h1.47c3.85,0,4.83-2,4.83-6.46,0-3.42-.76-5.27-3.2-5.27s-2.93,2.23-2.93,5.43v2.28H467V169c0-7.92,4.51-12.26,12-12.26s12.15,4.07,12.15,11.88c0,5.16-2.39,8.85-5.37,9.66,3,1.14,5.37,3.85,5.37,10.15,0,8-3.25,13.73-12.05,13.73C469.84,202.17,467,196.58,467,188.38Z" transform="translate(-57.88 -156.75)"/><path class="cls-2" d="M498.51,187.57v-15.9c0-8.57,2.34-14.87,12.1-14.87,8.41,0,11.18,4,11.18,11.29,0,.27.06.54.06.76h-8.52c0-3.53-.22-5.21-2.66-5.21s-2.93,1.9-2.93,8.74v3.9c.87-1.52,3-2.33,5.42-2.44,7-.16,9.5,5.48,9.5,12.64,0,9.23-2.77,15.52-12,15.52C502,202,498.51,195.93,498.51,187.57Zm15,.33c0-4.29,0-7.11-2.87-7.11a3.61,3.61,0,0,0-2.93,1.73v7.17c0,3,.59,5.64,3,5.64S513.54,192.83,513.54,187.9Z" transform="translate(-57.88 -156.75)"/><path class="cls-2" d="M530.19,189.58V169.66c0-7.7,3.74-12.91,12-12.91s11.94,5.21,11.94,12.91v19.92c0,7.38-4.13,12.59-11.94,12.59S530.19,197.07,530.19,189.58Zm14.7-.22V169.88c0-1.79,0-5-2.71-5s-2.71,3.26-2.71,5v19.48c0,1.68.21,4.72,2.71,4.72S544.89,191,544.89,189.36Z" transform="translate(-57.88 -156.75)"/></svg>