<svg id="Layer_1" data-name="Layer 1" xmlns="http://www.w3.org/2000/svg" viewBox="0 0 474.04 391.65"><defs><style>.cls-1{fill:#242e3a;}.cls-2,.cls-3{fill:#b96534;}.cls-3{stroke:#b96534;stroke-miterlimit:10;stroke-width:6px;}</style></defs><path class="cls-1" d="M80.48,197.51V156.92c0-23.36,8.06-37.67,33.78-37.67,24.88,0,32.38,13.34,32.38,32.52v9.73H122.32V150.24c0-6.53-.14-13.48-8.06-13.48s-8.62,7.09-8.62,13.9v53c0,7.65,1.25,13.76,8.62,13.76,7.78,0,8.06-6.95,8.06-13.76V191.81h24.32v9.73c0,19.18-7.22,33.5-32.38,33.5C88.54,235,80.48,220.3,80.48,197.51Z" transform="translate(-73.65 -119.25)"/><path class="cls-1" d="M154.84,197.92V156.08c0-23.21,8.48-36.83,33.78-36.83s34.06,13.62,34.06,36.83v41.84c0,23.22-8.62,37.12-34.06,37.12S154.84,221.14,154.84,197.92Zm42.4,6.26V150c0-6.68-.84-13.21-8.62-13.21-7.37,0-8.34,6.53-8.34,13.21v54.21c0,6.39.55,13.2,8.34,13.2S197.24,210.57,197.24,204.18Z" transform="translate(-73.65 -119.25)"/><path class="cls-1" d="M233.93,120.77h24.88v95.78h25.86v16.82H233.93Z" transform="translate(-73.65 -119.25)"/><path class="cls-1" d="M291.61,120.77H316.5v95.78h25.85v16.82H291.61Z" transform="translate(-73.65 -119.25)"/><path class="cls-1" d="M349.3,120.77h50.6v17H374.18v27.94h19.6v17.24h-19.6v33.64h26v16.82H349.3Z" transform="translate(-73.65 -119.25)"/><path class="cls-1" d="M406,196.12V158.31c0-23.91,8.06-39.06,33.78-39.06,24.88,0,32.94,13.34,32.94,32.94v7.23H448.41v-9.18c0-7.09-.56-13.48-8.34-13.48-8.07,0-8.62,7.37-8.62,14.18v52.13c0,7.64,1.67,14.31,9.31,14.31s9.73-6.95,9.73-14.59V189.58H440.34V175h32.53v58.38h-16.4l-1.39-9.31c-3.06,6.39-8.34,11-18.21,11C413.52,235,406,219.33,406,196.12Z" transform="translate(-73.65 -119.25)"/><path class="cls-1" d="M484.54,120.77h50.6v17H509.42v27.94H529v17.24H509.42v33.64h26v16.82H484.54Z" transform="translate(-73.65 -119.25)"/><path class="cls-2" d="M175,382c16.12-4.4,29-24.32,29-52.15,0-42.2-24.61-64.17-65.63-64.17-40.44,0-64.76,23.44-64.76,66.22v14.35h48.94v-12.3c0-17.29,2.93-29.3,15.82-29.3,13.18,0,17.28,10,17.28,28.42,0,24-5.27,34.87-26.07,34.87h-7.91v33.69h9.08c20.22.59,24.9,12.89,24.9,36.33,0,21.39-2.63,31.65-15.82,31.65-13.48,0-17.28-9.38-17.28-33.11V428H73.65v8.5c0,44.24,15.53,74.42,65.34,74.42,47.47,0,65-30.77,65-74.13C204,402.78,191.44,388.13,175,382Z" transform="translate(-73.65 -119.25)"/><path class="cls-2" d="M316.26,358c-13.19.59-24.62,5-29.3,13.19V350c0-36.92,2.34-47.17,15.82-47.17,13.18,0,14.35,9.08,14.35,28.13h46c0-1.17-.3-2.64-.3-4.1,0-39.56-14.94-60.95-60.36-60.95-52.73,0-65.33,34-65.33,80.28v85.85c0,45.12,19,77.94,65.63,77.94,49.81,0,64.75-34,64.75-83.8C367.53,387.55,353.76,357.08,316.26,358Zm-12.9,116c-13.18,0-16.4-14.36-16.4-30.47V404.83c2.34-4.1,8.49-9.37,15.82-9.37,15.23,0,15.53,15.23,15.53,38.38C318.31,460.5,316.55,474,303.36,474Z" transform="translate(-73.65 -119.25)"/><path class="cls-2" d="M529.45,306.72a33,33,0,0,1-45.89-30.44,33.12,33.12,0,0,1,1.31-9.24,87.77,87.77,0,0,0-16-1.38c-44.54,0-64.76,28.13-64.76,69.73V442.92c0,40.44,22,68,64.76,68,42.19,0,64.46-28.13,64.46-68V335.39A97.35,97.35,0,0,0,529.45,306.72Zm-45.89,135c0,9.08-.88,25.49-14.65,25.49-13.48,0-14.65-16.41-14.65-25.49V336.57c0-9.67-.3-27.25,14.65-27.25,14.65,0,14.65,17.58,14.65,27.25Z" transform="translate(-73.65 -119.25)"/><path class="cls-3" d="M520.87,248.18A23.82,23.82,0,1,0,544.69,272,23.83,23.83,0,0,0,520.87,248.18Zm0,40.81a17,17,0,1,1,6.57-1.31A17,17,0,0,1,520.87,289Z" transform="translate(-73.65 -119.25)"/></svg>